<?xml version="1.0" encoding="UTF-8" standalone="no"?>
<svg
   xmlns:dc="http://purl.org/dc/elements/1.1/"
   xmlns:cc="http://creativecommons.org/ns#"
   xmlns:rdf="http://www.w3.org/1999/02/22-rdf-syntax-ns#"
   xmlns:svg="http://www.w3.org/2000/svg"
   xmlns="http://www.w3.org/2000/svg"
   xmlns:sodipodi="http://sodipodi.sourceforge.net/DTD/sodipodi-0.dtd"
   xmlns:inkscape="http://www.inkscape.org/namespaces/inkscape"
   version="1.1"
   id="Layer_1"
   x="0px"
   y="0px"
   viewBox="0 0 214.9 217.7"
   style="enable-background:new 0 0 214.9 217.7;"
   xml:space="preserve"
   sodipodi:docname="icon.svg"
   inkscape:version="1.0 (4035a4fb49, 2020-05-01)"><metadata
   id="metadata48"><rdf:RDF><cc:Work
       rdf:about=""><dc:format>image/svg+xml</dc:format><dc:type
         rdf:resource="http://purl.org/dc/dcmitype/StillImage" /><dc:title>Page 1 Copy 9</dc:title></cc:Work></rdf:RDF></metadata><defs
   id="defs46"><linearGradient
     gradientTransform="translate(-246.04242,-774.79111)"
     y2="718.49988"
     x2="63.869701"
     y1="837.00989"
     x1="63.869701"
     gradientUnits="userSpaceOnUse"
     id="SVGID_2_"><stop
       id="stop94"
       style="stop-color:#616161"
       offset="7.533500e-03" /><stop
       id="stop96"
       style="stop-color:#888888"
       offset="0.5931" /><stop
       id="stop98"
       style="stop-color:#9E9E9E"
       offset="1" /></linearGradient><linearGradient
     gradientTransform="translate(-246.04242,-774.79111)"
     y2="718.64368"
     x2="63.9799"
     y1="837.02002"
     x1="63.9799"
     gradientUnits="userSpaceOnUse"
     id="SVGID_1_"><stop
       id="stop83"
       style="stop-color:#9E9E9E"
       offset="2.291900e-03" /><stop
       id="stop85"
       style="stop-color:#ADADAD"
       offset="0.2862" /><stop
       id="stop87"
       style="stop-color:#B9B9B9"
       offset="0.6397" /><stop
       id="stop89"
       style="stop-color:#BDBDBD"
       offset="1" /></linearGradient></defs><sodipodi:namedview
   inkscape:document-rotation="0"
   pagecolor="#ffffff"
   bordercolor="#666666"
   borderopacity="1"
   objecttolerance="10"
   gridtolerance="10"
   guidetolerance="10"
   inkscape:pageopacity="0"
   inkscape:pageshadow="2"
   inkscape:window-width="1920"
   inkscape:window-height="1017"
   id="namedview44"
   showgrid="false"
   inkscape:zoom="1.3430806"
   inkscape:cx="94.938222"
   inkscape:cy="129.1796"
   inkscape:window-x="-8"
   inkscape:window-y="-8"
   inkscape:window-maximized="1"
   inkscape:current-layer="Layer_1" />
<style
   type="text/css"
   id="style30">
	.st0{fill:#FFFFFF;stroke:#231F20;stroke-width:11;}
	.st1{opacity:0.748;fill-rule:evenodd;clip-rule:evenodd;fill:#FFD1F7;enable-background:new    ;}
	.st2{fill-rule:evenodd;clip-rule:evenodd;fill:#231F20;}
</style>
<title
   id="title32">Page 1 Copy 9</title>
<desc
   id="desc34">Created with Sketch.</desc>
<g
   id="Style-Guide">
	<g
   id="Artboard-Copy-4"
   transform="translate(-98.000000, -673.000000)">
		<g
   id="Page-1-Copy-9"
   transform="translate(102.000000, 678.000000)">
			<path
   id="Stroke-3"
   class="st0"
   d="M159.4,198.4c0.6,0.7,1.7,0.6,2.2-0.2c5.3-7.7,31-48.1,35.3-83c7.1-58.2-31.2-107-91.3-107     S2.6,55.3,9.9,115.2c5.4,43.5,31.4,77.6,36.2,83.5c0.6,0.7,1.6,0.7,2.2,0l17.2-22.9c0.6-0.7,1.8-0.6,2.3,0.1l15.6,22.8     c0.5,0.8,1.7,0.9,2.3,0.1l17.5-21.6c0.6-0.7,1.8-0.7,2.3,0.1l15.3,21.4c0.6,0.8,1.8,0.8,2.4,0l16.2-23.3c0.5-0.8,1.6-0.8,2.2-0.2     L159.4,198.4z" />
			<path
   id="Fill-5"
   class="st1"
   d="M130.7,86.2c-19.3,1.1-34.6,7.8-34.2,15c0.4,7.2,16.3,12.2,35.6,11.1c19.3-1.1,34.6-7.8,34.2-15     S149.9,85.2,130.7,86.2z" />
			<path
   id="Fill-7"
   class="st2"
   d="M118.6,87.4c0,3.8-2.6,7-5.9,7c-3.2,0-5.9-3.1-5.9-7s2.6-7,5.9-7     C116,80.5,118.6,83.6,118.6,87.4" />
			<path
   id="Fill-9"
   class="st2"
   d="M156.9,84.5c0,5-3.2,9-7.1,9c-3.9,0-7.1-4-7.1-9s3.2-9,7.1-9C153.8,75.5,156.9,79.5,156.9,84.5" />
		</g>
	</g>
</g>
<g
   id="g193"
   transform="matrix(0.72514407,0,0,0.72514407,303.97606,40.326096)"><path
     style="fill:url(#SVGID_1_)"
     d="m -122.84242,-1.0911125 c -0.2,-2.8 -0.4,-5.5 -1,-8.2 -0.5,-2.0999995 -1.9,-3.3999995 -4.1,-3.6999995 -3,-0.4 -6,-0.8 -9,-1.2 -0.3,0 -0.5,-0.2 -0.6,-0.5 -0.2,-0.5 -0.4,-1 -0.6,-1.5 -0.1,-0.2 -0.1,-0.4 0.1,-0.6 1.9,-2.4 3.7,-4.8 5.6,-7.3 1.4,-1.8 1.4,-3.7 0.2,-5.5 -2.2,-3.4 -4.9,-6.4 -7.7,-9.3 -2.9,-2.9 -6,-5.6 -9.4,-7.9 -1.9,-1.3 -3.8,-1.2 -5.6,0.2 -2.4,1.8 -4.8,3.7 -7.2,5.5 -0.4,0.3 -0.6,0.3 -0.9,0.2 -0.5,-0.2 -1,-0.4 -1.5,-0.6 -0.2,-0.1 -0.4,-0.2 -0.4,-0.5 -0.4,-3.1 -0.8,-6.2 -1.2,-9.3 -0.2,-1.8 -1.7,-3.4 -3.4,-3.8 -8,-1.7 -16.6,-1.4 -24.8,-0.1 -2.2,0.4 -3.4,2 -3.7,4 -0.4,3.1 -0.8,6.2 -1.2,9.2 0,0.1 -0.1,0.3 -0.2,0.3 -0.6,0.3 -1.2,0.5 -1.8,0.8 -0.1,0 -0.4,0 -0.5,-0.1 -2.4,-1.9 -4.9,-3.7 -7.3,-5.6 -1.7,-1.3 -3.6,-1.4 -5.4,-0.2 -3.4,2.2 -6.5,4.9 -9.4,7.7 -2.9,2.9 -5.6,6 -7.9,9.5 -1.2,1.9 -1.1,3.8 0.2,5.6 1.9,2.4 3.7,4.8 5.6,7.2 0.2,0.2 0.2,0.4 0.1,0.6 -0.2,0.5 -0.5,1.1 -0.7,1.6 -0.1,0.2 -0.2,0.3 -0.5,0.4 -1.8,0.2 -3.7,0.5 -5.5,0.7 -1.4,0.2 -2.7,0.3 -4.1,0.5 -1.7,0.3 -3.2,1.6 -3.6,3.3999995 -0.5,2.4 -0.8,4.8 -1,7.2 -0.1,1.60000004 0,3.20000004 -0.1,4.8 0,0.1 0.1,0.2 0.1,0.3 v 0.2 c 0,0.4 -0.1,0.8 -0.1,1.2 0.1,3.6 0.3,7.2000005 1,10.7000005 0.5,2.4 1.8,3.6 4.2,3.9 3,0.4 6,0.8 9,1.2 0.2,0 0.3,0.1 0.4,0.3 0.2,0.5 0.4,1.1 0.6,1.6 0.2,0.3 0.1,0.5 -0.1,0.8 -1.9,2.4 -3.7,4.8 -5.6,7.2 -1.3,1.7 -1.4,3.6 -0.2,5.4 2.2,3.4 4.9,6.5 7.8,9.4 2.9,2.9 6,5.6 9.5,7.9 1.9,1.2 3.8,1.2 5.6,-0.2 2.4,-1.9 4.8,-3.7 7.2,-5.6 0.2,-0.2 0.4,-0.2 0.7,-0.1 0.5,0.2 1.1,0.4 1.7,0.7 0.1,0.1 0.3,0.2 0.3,0.4 0.4,3.1 0.8,6.3 1.2,9.4 0.3,2 1.7,3.4 3.7,3.8 3.2,0.7 6.3,0.9 9.6,1.1 0.3,0 0.7,0.1 1,0.1 h 3.3 c 0.9,0 1.8,-0.1 2.8,-0.1 2.7,-0.2 5.4,-0.4 8.1,-1.1 1.8,-0.4 3.2,-1.9 3.4,-3.8 0.4,-3.1 0.8,-6.3 1.2,-9.4 0,-0.1 0.1,-0.3 0.2,-0.3 0.6,-0.3 1.2,-0.5 1.8,-0.8 0.1,-0.1 0.3,0 0.5,0.1 2.4,1.9 4.9,3.7 7.3,5.6 1.8,1.4 3.7,1.5 5.6,0.2 3.5,-2.3 6.6,-5 9.5,-7.9 2.8,-2.8 5.4,-5.8 7.6,-9.2 1.3,-2 1.2,-3.8 -0.2,-5.7 -1.8,-2.4 -3.7,-4.8 -5.5,-7.2 -0.2,-0.2 -0.2,-0.4 -0.1,-0.7 0.2,-0.5 0.5,-1.1 0.7,-1.6 0.1,-0.2 0.2,-0.3 0.4,-0.4 3.1,-0.4 6.2,-0.8 9.3,-1.2 1.9,-0.2 3.4,-1.6 3.8,-3.4 0.5,-2.3 0.8,-4.7 1,-7.1000005 0.3,-3 0.3,-6.1 0.2,-9.2 z m -59.2,23.4000005 c -10.7,0 -19.4,-8.7 -19.4,-19.5000005 0,-10.7 8.7,-19.3999995 19.4,-19.3999995 10.7,0 19.4,8.6999995 19.4,19.3999995 0,10.9000005 -8.7,19.6000005 -19.4,19.5000005 z"
     id="path92" /><path
     style="fill:url(#SVGID_2_)"
     d="m -184.24242,-56.291112 c 1.5,0 3.1,0.1 4.6,0.1 0.1,0 0.2,0 0.3,0 1.1,0.1 2.1,0.1 3.2,0.2 2.3,0.2 4.5,0.4 6.7,1 1.8,0.4 3.1,1.9 3.4,3.8 0.4,3.1 0.8,6.2 1.2,9.3 0,0.3 0.2,0.4 0.4,0.5 0.5,0.2 1,0.4 1.5,0.6 0.3,0.1 0.5,0.1 0.7,-0.1 2.4,-1.9 4.8,-3.7 7.2,-5.5 1.8,-1.4 3.7,-1.5 5.6,-0.2 3.4,2.2 6.5,5 9.4,7.9 2.9,2.9 5.5,5.9 7.7,9.3 1.2,1.9 1.1,3.8 -0.2,5.5 -1.9,2.4 -3.7,4.9 -5.6,7.3 -0.2,0.2 -0.2,0.4 -0.1,0.6 0.2,0.5 0.4,1 0.6,1.5 0.1,0.3 0.3,0.4 0.6,0.5 3,0.4 6,0.8 9,1.2 2.2,0.3 3.6,1.5 4.1,3.6999995 0.6,2.7 0.9,5.4 1,8.20000004 0.2,3.09999996 0.2,6.19999996 -0.1,9.39999996 -0.2,2.4000005 -0.5,4.8000005 -1,7.1000005 -0.4,1.9 -1.9,3.2 -3.8,3.4 -3.1,0.4 -6.2,0.8 -9.3,1.2 -0.2,0 -0.4,0.1 -0.4,0.4 -0.2,0.5 -0.4,1.1 -0.7,1.6 -0.1,0.3 -0.1,0.4 0.1,0.7 1.9,2.4 3.7,4.8 5.5,7.2 1.4,1.9 1.5,3.7 0.2,5.7 -2.2,3.3 -4.8,6.3 -7.6,9.2 -2.9,2.9 -6,5.7 -9.5,7.9 -1.9,1.2 -3.8,1.2 -5.6,-0.2 -2.4,-1.9 -4.8,-3.7 -7.3,-5.6 -0.1,-0.1 -0.3,-0.2 -0.5,-0.1 -0.6,0.2 -1.2,0.5 -1.8,0.8 -0.1,0.1 -0.2,0.2 -0.2,0.3 -0.4,3.1 -0.8,6.3 -1.2,9.4 -0.2,1.9 -1.6,3.4 -3.4,3.8 -2.7,0.6 -5.4,0.9 -8.1,1.1 -0.9,0.1 -1.8,0.1 -2.8,0.2 h -3.3 c -0.3,0 -0.7,-0.1 -1,-0.1 -3.2,-0.1 -6.4,-0.4 -9.6,-1.1 -2,-0.4 -3.4,-1.9 -3.7,-3.8 -0.4,-3.1 -0.8,-6.3 -1.2,-9.4 0,-0.1 -0.2,-0.3 -0.3,-0.4 -0.5,-0.2 -1.1,-0.4 -1.7,-0.7 -0.2,-0.1 -0.4,-0.1 -0.7,0.1 -2.4,1.9 -4.8,3.7 -7.2,5.6 -1.8,1.4 -3.7,1.5 -5.6,0.2 -3.5,-2.2 -6.5,-4.9 -9.4,-7.9 -2.9,-2.9 -5.5,-5.9 -7.8,-9.4 -1.2,-1.8 -1.1,-3.7 0.2,-5.4 1.9,-2.4 3.7,-4.8 5.6,-7.2 0.2,-0.3 0.2,-0.5 0.1,-0.8 -0.2,-0.5 -0.5,-1 -0.6,-1.6 -0.1,-0.2 -0.2,-0.3 -0.4,-0.3 -3,-0.4 -6,-0.8 -9,-1.2 -2.4,-0.3 -3.8,-1.6 -4.3,-3.9 -0.7,-3.5 -1,-7.1000005 -1.1,-10.7000005 0,-0.4 0,-0.8 -0.1,-1.2 v -0.2 c 0,-0.1 0,-0.2 0,-0.3 0.1,-1.6 0.1,-3.19999996 0.2,-4.8 0.2,-2.4 0.4,-4.8 1,-7.2 0.4,-1.7999995 1.8,-3.0999995 3.6,-3.3999995 1.4,-0.2 2.7,-0.4 4.1,-0.5 1.8,-0.2 3.7,-0.5 5.5,-0.7 0.2,0 0.4,-0.1 0.5,-0.4 0.2,-0.5 0.4,-1.1 0.7,-1.6 0.1,-0.2 0.1,-0.4 -0.1,-0.6 -1.9,-2.4 -3.7,-4.8 -5.6,-7.2 -1.4,-1.8 -1.5,-3.7 -0.2,-5.6 2.3,-3.5 5,-6.6 7.9,-9.5 2.9,-2.9 5.9,-5.5 9.4,-7.7 1.8,-1.2 3.7,-1.1 5.4,0.2 2.4,1.9 4.9,3.7 7.3,5.6 0.1,0.1 0.3,0.2 0.5,0.1 0.6,-0.2 1.2,-0.5 1.8,-0.8 0.1,0 0.2,-0.2 0.2,-0.3 0.4,-3.1 0.8,-6.1 1.2,-9.2 0.3,-2.2 1.6,-3.6 3.7,-4.1 2.5,-0.6 5.1,-0.8 7.6,-1 1.1,-0.4 1.8,-0.5 2.6,-0.5 z m -5.2,9.4 v 0.1 c -0.4,2.9 -0.8,5.8 -1.1,8.7 -0.2,2 -1.2,3.3 -3.1,4 -2.1,0.7 -4.2,1.6 -6.2,2.6 -1.7,0.8 -3.3,0.6 -4.8,-0.5 -1.7,-1.3 -3.3,-2.5 -5,-3.8 -0.8,-0.6 -1.5,-1.2 -2.3,-1.8 -4,3.1 -7.5,6.6 -10.6,10.6 0.1,0.1 0.2,0.2 0.3,0.3 1.8,2.3 3.5,4.6 5.3,6.9 1.1,1.4 1.3,3 0.5,4.7 -1,2.1 -1.9,4.3 -2.7,6.4999995 -0.6,1.7 -1.8,2.6 -3.5,2.9 -2.9,0.4 -5.9,0.8 -8.8,1.2 -0.4,0 -0.4,0.2 -0.5,0.5 -0.1,2.1 -0.3,4.30000004 -0.4,6.4 -0.1,2.6 0.1,5.1 0.4,7.7000005 0,0.2 0,0.5 0.4,0.5 2.8,0.3 5.6,0.8 8.4,1.1 2.1,0.2 3.5,1.3 4.2,3.3 0.7,2 1.5,4 2.5,5.9 0.8,1.7 0.6,3.3 -0.5,4.9 -1.6,2.1 -3.3,4.2 -4.9,6.4 -0.2,0.3 -0.4,0.6 -0.6,0.8 3.1,4 6.6,7.5 10.6,10.6 0.1,-0.1 0.3,-0.2 0.4,-0.3 2.3,-1.8 4.6,-3.5 6.9,-5.3 1.4,-1.1 3,-1.3 4.6,-0.6 2.2,1 4.4,1.9 6.6,2.7 1.6,0.6 2.5,1.8 2.8,3.5 0.3,1.9 0.5,3.8 0.8,5.7 0.2,1.2 0.3,2.4 0.5,3.6 0.1,0 0.1,0.1 0.2,0.1 0.8,0.1 1.6,0.2 2.3,0.2 4,0.3 8.1,0.3 12.1,-0.2 0.2,0 0.3,-0.1 0.4,-0.3 0.4,-2.9 0.8,-5.7 1.1,-8.6 0.2,-2 1.3,-3.3 3.2,-4 2.1,-0.7 4.1,-1.5 6,-2.5 1.8,-0.9 3.4,-0.7 5,0.5 1.7,1.3 3.4,2.7 5.2,4 0.7,0.5 1.3,1 2,1.5 l 0.1,-0.1 c 3.9,-3 7.3,-6.5 10.3,-10.3 0.2,-0.2 0.1,-0.3 -0.1,-0.5 -1.8,-2.3 -3.6,-4.7 -5.4,-7 -1,-1.4 -1.3,-2.9 -0.5,-4.5 1,-2.2 1.9,-4.4 2.8,-6.7 0.6,-1.6 1.8,-2.6 3.6,-2.8 2.7,-0.4 5.5,-0.7 8.2,-1.1 0.9,-0.1 0.9,-0.1 1,-1.0000005 0,-0.1 0,-0.2 0,-0.3 0.3,-3.2 0.4,-6.4 0.2,-9.59999996 -0.1,-1.30000004 -0.2,-2.60000004 -0.3,-3.80000004 0,-0.2 0,-0.4 -0.3,-0.4 -2.9,-0.4 -5.8,-0.8 -8.7,-1.1 -1.9,-0.2 -3.2,-1.2 -3.8,-3 -0.8,-2.1999995 -1.6,-4.1999995 -2.6,-6.2999995 -0.8,-1.7 -0.6,-3.3 0.5,-4.8 0.9,-1.2 1.9,-2.4 2.8,-3.6 0.9,-1.2 1.9,-2.4 2.8,-3.6 -3.1,-4 -6.6,-7.5 -10.6,-10.6 -0.1,0.1 -0.2,0.2 -0.3,0.3 -2.3,1.8 -4.6,3.5 -6.9,5.3 -1.4,1.1 -2.9,1.3 -4.5,0.6 -2.2,-1 -4.5,-2 -6.8,-2.8 -1.6,-0.6 -2.5,-1.8 -2.7,-3.4 -0.3,-2.3 -0.6,-4.6 -0.9,-6.8 -0.1,-0.8 -0.2,-1.6 -0.3,-2.4 -3.5,-0.9 -12.9,-0.9 -15.3,-0.2 z"
     id="path101" /><path
     style="fill:#757575"
     d="m -181.94242,33.608888 c -16.9,0 -30.6,-13.7 -30.6,-30.6000005 0,-16.8999995 13.7,-30.5999995 30.7,-30.5999995 16.9,0 30.6,13.8 30.6,30.5999995 -0.1,16.8000005 -13.8,30.6000005 -30.7,30.6000005 z m 0,-50.1 c -10.7,0 -19.4,8.6999995 -19.4,19.3999995 0,10.7000005 8.7,19.4000005 19.4,19.5000005 10.7,0 19.4,-8.7 19.4,-19.4000005 0,-10.7 -8.7,-19.4999995 -19.4,-19.4999995 z"
     id="path103" /><g
     transform="translate(-246.04242,-60.791112)"
     style="opacity:0.2"
     id="g107"><path
       style="fill:#424242"
       d="m 64.6,7.5 c 4,0 7.8,0.4 11.3,1.1 0.4,0.1 0.9,0.6 1,1.2 0.4,3.1 0.8,6.2 1.2,9.3 0.2,1.4 1,2.5 2.4,3 0.4,0.1 0.8,0.3 1.2,0.5 0.5,0.3 1.1,0.4 1.6,0.4 0.8,0 1.6,-0.3 2.2,-0.8 1.8,-1.4 3.7,-2.8 5.5,-4.2 l 1.7,-1.3 c 0.4,-0.3 0.8,-0.5 1.1,-0.5 0.3,0 0.6,0.1 1.1,0.4 2.9,1.9 5.8,4.3 9,7.5 3.1,3.1 5.4,5.9 7.3,8.8 0.5,0.8 0.5,1.3 -0.1,2 l -1.1,1.5 c -1.5,1.9 -3,3.9 -4.4,5.8 -0.9,1.1 -1,2.5 -0.4,3.7 0.2,0.5 0.4,0.9 0.5,1.3 0.5,1.4 1.6,2.3 3,2.4 1.4,0.2 2.7,0.3 4.1,0.5 1.7,0.2 3.3,0.4 4.9,0.6 0.9,0.1 1.3,0.5 1.5,1.3 0.5,2.2 0.8,4.6 1,7.7 0.2,3 0.1,6 -0.1,9 -0.2,2.7 -0.5,4.8 -0.9,6.7 -0.2,0.7 -0.6,1.1 -1.3,1.1 l -3.5,0.5 c -1.9,0.2 -3.9,0.5 -5.8,0.8 -1.4,0.2 -2.4,1 -2.9,2.3 -0.2,0.4 -0.3,0.9 -0.5,1.3 -0.6,1.3 -0.5,2.7 0.4,3.8 1.6,2.1 3.3,4.2 4.9,6.4 l 0.6,0.8 c 0.7,0.9 0.7,1.3 0.1,2.2 -1.8,2.8 -4.2,5.7 -7.2,8.7 -3.2,3.2 -6.1,5.6 -9,7.6 -0.4,0.3 -0.7,0.4 -1,0.4 -0.3,0 -0.7,-0.2 -1.1,-0.5 l -1.3,-1 c -2,-1.5 -4,-3.1 -5.9,-4.6 -0.6,-0.5 -1.4,-0.7 -2.2,-0.7 -0.4,0 -0.8,0.1 -1.1,0.2 -0.6,0.2 -1.3,0.5 -2.1,0.8 -1,0.5 -1.8,1.5 -2,2.6 -0.4,3.1 -0.8,6.3 -1.2,9.4 -0.1,0.6 -0.5,1.1 -1.1,1.3 -2.7,0.6 -5.5,0.9 -7.6,1 l -0.7,0.1 C 67,120 66.4,120 65.8,120 h -3.3 c -0.1,0 -0.2,0 -0.3,0 -0.2,0 -0.4,0 -0.5,0 -3.5,-0.1 -6.4,-0.4 -9.1,-1 -0.5,-0.1 -1.2,-0.4 -1.3,-1.3 l -0.5,-3.5 c -0.3,-2 -0.5,-3.9 -0.8,-5.9 -0.2,-1.2 -0.9,-2.2 -2,-2.7 -0.3,-0.2 -0.7,-0.3 -1,-0.4 -0.2,-0.1 -0.5,-0.2 -0.7,-0.3 -0.5,-0.2 -1,-0.3 -1.5,-0.3 -0.5,0 -1.4,0.1 -2.2,0.8 l -5.4,4.1 -1.9,1.4 c -0.4,0.3 -0.8,0.5 -1.1,0.5 -0.3,0 -0.6,-0.1 -1,-0.4 -2.9,-1.9 -5.8,-4.3 -9,-7.5 -3.1,-3.2 -5.5,-6 -7.4,-8.9 -0.5,-0.7 -0.5,-1.3 0.1,-2 l 0.2,-0.3 c 1.8,-2.3 3.5,-4.6 5.3,-6.9 0.9,-1.2 1.1,-2.7 0.4,-4 C 22.6,81.1 22.5,80.6 22.3,80.2 21.8,78.9 20.8,78.1 19.5,77.9 18.3,77.7 17.1,77.6 15.9,77.4 14.1,77.2 12.3,76.9 10.5,76.7 9.4,76.6 9.1,76.3 8.8,75.1 8.1,71.6 8,68 7.9,65 c 0,-0.1 0,-0.2 0,-0.2 C 8,64.5 8,64.2 8,63.8 v -0.2 c 0,-0.3 0,-0.5 -0.1,-0.8 0,-0.6 0,-1.2 0,-1.8 0,-0.8 0,-1.7 0,-2.4 C 8.1,56.2 8.4,54 8.9,52 9,51.4 9.5,51 10,50.9 c 0.9,-0.1 1.9,-0.3 2.9,-0.4 l 1.2,-0.2 c 1.8,-0.2 3.6,-0.5 5.5,-0.7 1.4,-0.2 2.4,-1 2.9,-2.3 0.2,-0.5 0.4,-0.9 0.6,-1.4 0.6,-1.3 0.4,-2.6 -0.4,-3.7 C 21.3,40.4 20,38.7 18.6,36.9 L 16.9,35 c -0.6,-0.8 -0.6,-1.3 -0.1,-2.1 1.9,-3 4.3,-5.8 7.5,-9 3.1,-3.1 6,-5.5 8.9,-7.3 0.3,-0.2 0.7,-0.3 0.9,-0.3 0.3,0 0.7,0.1 1,0.4 2.4,1.9 4.9,3.8 7.3,5.6 0.6,0.5 1.4,0.7 2.2,0.7 0.4,0 0.8,-0.1 1.1,-0.2 0.7,-0.3 1.5,-0.6 2,-0.8 1.1,-0.5 1.8,-1.5 2,-2.7 0.3,-2.1 0.6,-4.3 0.8,-6.4 L 50.9,10 C 51,9.4 51.2,8.7 52.1,8.6 56.5,7.9 60.7,7.5 64.6,7.5 M 64,86.1 c 12.3,0 22.4,-10 22.4,-22.4 0,-6 -2.3,-11.6 -6.6,-15.9 C 75.5,43.5 70,41.3 64,41.3 c -12.3,0 -22.4,10 -22.4,22.4 0,12.4 10.1,22.4 22.4,22.4 v 0 M 64.6,4.5 c -4.3,0 -8.6,0.4 -12.8,1.1 -2.2,0.4 -3.4,2 -3.7,4 -0.4,3.1 -0.8,6.2 -1.2,9.2 0,0.1 -0.1,0.3 -0.2,0.3 -0.6,0.3 -1.2,0.5 -1.8,0.8 h -0.1 c -0.1,0 -0.3,-0.1 -0.4,-0.1 -2.4,-1.9 -4.9,-3.7 -7.3,-5.6 -0.9,-0.7 -1.9,-1.1 -2.9,-1.1 -0.9,0 -1.7,0.3 -2.6,0.8 -3.4,2.2 -6.5,4.9 -9.4,7.7 -2.9,2.9 -5.6,6 -7.9,9.5 -1.2,1.9 -1.1,3.8 0.2,5.6 1.9,2.4 3.7,4.8 5.6,7.2 0.2,0.2 0.2,0.4 0.1,0.6 -0.2,0.5 -0.5,1.1 -0.7,1.6 -0.1,0.2 -0.2,0.3 -0.5,0.4 -1.8,0.2 -3.7,0.5 -5.5,0.7 -1.4,0.2 -2.7,0.3 -4.1,0.5 -1.7,0.3 -3.2,1.6 -3.6,3.4 -0.5,2.4 -0.8,4.8 -1,7.2 -0.1,1.6 0,3.2 -0.1,4.8 0,0.1 0.1,0.2 0.1,0.3 v 0.2 c 0,0.4 -0.1,0.8 -0.1,1.2 0.1,3.6 0.3,7.2 1,10.7 0.5,2.4 1.8,3.6 4.2,3.9 3,0.4 6,0.8 9,1.2 0.2,0 0.3,0.1 0.4,0.3 0.2,0.5 0.4,1.1 0.6,1.6 0.2,0.3 0.1,0.5 -0.1,0.8 -1.9,2.4 -3.7,4.8 -5.6,7.2 -1.3,1.7 -1.4,3.6 -0.2,5.4 2.2,3.4 4.9,6.5 7.8,9.4 2.9,2.9 6,5.6 9.5,7.9 0.9,0.6 1.8,0.9 2.7,0.9 1,0 2,-0.4 2.9,-1.1 2.4,-1.9 4.8,-3.7 7.2,-5.6 0.1,-0.1 0.2,-0.2 0.4,-0.2 0.1,0 0.2,0 0.3,0.1 0.5,0.2 1.1,0.4 1.7,0.7 0.1,0.1 0.3,0.2 0.3,0.4 0.4,3.1 0.8,6.3 1.2,9.4 0.3,2 1.7,3.4 3.7,3.8 3.2,0.7 6.3,0.9 9.6,1.1 0.3,0 0.7,0.1 1,0.1 h 3.3 c 0.9,0 1.8,-0.1 2.8,-0.1 2.7,-0.2 5.4,-0.4 8.1,-1.1 1.8,-0.4 3.2,-1.9 3.4,-3.8 0.4,-3.1 0.8,-6.3 1.2,-9.4 0,-0.1 0.1,-0.3 0.2,-0.3 0.6,-0.3 1.2,-0.5 1.8,-0.8 h 0.1 c 0.1,0 0.3,0.1 0.3,0.1 2.4,1.9 4.9,3.7 7.3,5.6 0.9,0.7 1.9,1.1 2.9,1.1 0.9,0 1.8,-0.3 2.7,-0.9 3.5,-2.3 6.6,-5 9.5,-7.9 2.8,-2.8 5.4,-5.8 7.6,-9.2 1.3,-2 1.2,-3.8 -0.2,-5.7 -1.8,-2.4 -3.7,-4.8 -5.5,-7.2 -0.2,-0.2 -0.2,-0.4 -0.1,-0.7 0.2,-0.5 0.5,-1.1 0.7,-1.6 0.1,-0.2 0.2,-0.3 0.4,-0.4 3.1,-0.4 6.2,-0.8 9.3,-1.2 1.9,-0.2 3.4,-1.6 3.8,-3.4 0.5,-2.3 0.8,-4.7 1,-7.1 0.2,-3.1 0.2,-6.2 0.1,-9.4 -0.2,-2.8 -0.4,-5.5 -1,-8.2 -0.5,-2.1 -1.9,-3.4 -4.1,-3.7 -3,-0.4 -6,-0.8 -9,-1.2 -0.3,0 -0.5,-0.2 -0.6,-0.5 -0.2,-0.5 -0.4,-1 -0.6,-1.5 -0.1,-0.2 -0.1,-0.4 0.1,-0.6 1.9,-2.4 3.7,-4.8 5.6,-7.3 1.4,-1.8 1.4,-3.7 0.2,-5.5 -2.2,-3.4 -4.9,-6.4 -7.7,-9.3 -2.9,-2.9 -6,-5.6 -9.4,-7.9 -0.9,-0.6 -1.8,-0.9 -2.7,-0.9 -1,0 -2,0.4 -2.9,1.1 -2.4,1.8 -4.8,3.7 -7.2,5.5 C 83.6,20 83.5,20 83.3,20 83.2,20 83.1,20 83,19.9 82.5,19.7 82,19.5 81.5,19.3 81.3,19.2 81.1,19.1 81.1,18.8 80.7,15.7 80.3,12.6 79.9,9.5 79.7,7.7 78.2,6.1 76.5,5.7 72.7,4.9 68.7,4.5 64.6,4.5 Z M 64,83.1 v 0 C 53.2,83.1 44.6,74.4 44.6,63.6 44.6,52.9 53.3,44.2 64,44.2 v 0 c 10.7,0 19.4,8.7 19.4,19.4 0,10.8 -8.7,19.5 -19.4,19.5 z"
       id="path105" /></g></g></svg>
